<svg width="370" height="100" xmlns="http://www.w3.org/2000/svg">
 <!-- Created with Method Draw - http://github.com/duopixel/Method-Draw/ -->

 <g>
  <title>background</title>
  <rect x="-1" y="-1" width="372" height="102" id="canvas_background" fill="none"/>
 </g>
 <g stroke="null">
  <title>Layer 1</title>
  <line stroke="#ffffff" stroke-linecap="undefined" stroke-linejoin="undefined" id="svg_34" y2="48.45313" x2="225.47135" y1="48.45313" x1="271.5" stroke-width="3" fill="none"/>
  <g id="svg_26" stroke="null">
   <g id="svg_5" transform="matrix(0.1565825249280397,0,0,0.1565825249280397,-6610.35477835394,-1758.1229026391957) " stroke="null">
    <g id="svg_6" stroke="null">
     <g id="svg_7" stroke="null">
      <g id="svg_8" stroke="null">
       <path d="m43651.68133,11541.0321c0,133.102 -107.9,241 -241.004,241c-133.098,0 -240.998,-107.898 -240.998,-241c0,-133.1 107.898,-241 241.002,-241c133.1,0 241,107.9 241,241z" fill="#54e360" id="svg_9" stroke="null"/>
      </g>
      <g id="svg_16" stroke="null">
       <path d="m43535.65033,11450.1451c-12.549,-12.549 -32.896,-12.553 -45.443,0l-113.608,113.609l-45.445,-45.445c-12.549,-12.549 -32.893,-12.549 -45.441,0s-12.549,32.896 0,45.445l68.164,68.164c12.549,12.549 32.896,12.549 45.441,-0.004l136.332,-136.328c12.549,-12.548 12.549,-32.892 0,-45.441z" fill="#e7f0ef" id="svg_17" stroke="null"/>
      </g>
     </g>
     <g id="svg_18" stroke="null">
      <path d="m43591.70333,11360.0051c-48.352,-48.351 -112.639,-74.98 -181.02,-74.98s-132.668,26.629 -181.02,74.98c-48.353,48.353 -74.98,112.64 -74.98,181.02c0,68.381 26.629,132.668 74.98,181.02s112.637,74.98 181.016,74.98c68.383,0 132.67,-26.629 181.023,-74.98c48.352,-48.352 74.981,-112.639 74.981,-181.02c0,-68.379 -26.629,-132.666 -74.98,-181.02zm-181.024,407.02c-124.615,0 -225.996,-101.383 -225.996,-226s101.383,-226 226,-226s226,101.383 226,226s-101.385,226 -226.004,226z" fill="#ffffff" id="svg_24" stroke="null"/>
      <path d="m43512.92933,11425.7251c-12.592,0 -24.428,4.904 -33.324,13.807l-103.004,103.003l-34.838,-34.839c-8.902,-8.902 -20.738,-13.806 -33.328,-13.806c-12.588,0 -24.424,4.903 -33.326,13.806c-18.379,18.378 -18.379,48.28 0,66.658l68.164,68.164c8.9,8.901 20.736,13.804 33.326,13.805c12.594,0 24.43,-4.905 33.328,-13.808l136.332,-136.329c18.377,-18.376 18.377,-48.278 0,-66.654c-8.904,-8.903 -20.74,-13.807 -33.33,-13.807zm12.117,59.247l-136.336,136.332c-3.234,3.236 -7.535,5.019 -12.111,5.019s-8.879,-1.782 -12.113,-5.018l-68.164,-68.164c-6.682,-6.681 -6.682,-17.552 0,-24.232c3.236,-3.235 7.537,-5.019 12.113,-5.019s8.879,1.783 12.115,5.019l45.445,45.445c2.813,2.813 6.627,4.394 10.605,4.394s7.795,-1.58 10.607,-4.394l113.613,-113.612c3.232,-3.234 7.531,-5.017 12.107,-5.017s8.879,1.782 12.117,5.02c6.682,6.679 6.682,17.549 0.002,24.227z" fill="#ffffff" id="svg_25" stroke="null"/>
     </g>
    </g>
   </g>
  </g>
  <g id="svg_50" stroke="null">
   <g id="svg_49" transform="matrix(0.1565825249280397,0,0,0.1565825249280397,-6610.35477835394,-1758.1229026391957) " stroke="null">
    <g id="svg_48" stroke="null">
     <g id="svg_44" stroke="null">
      <g id="svg_41" stroke="null">
       <path d="m44443.59603,11541.0321c0,133.102 -107.9,241 -241.004,241c-133.098,0 -240.998,-107.898 -240.998,-241c0,-133.1 107.898,-241 241.002,-241c133.1,0 241,107.9 241,241z" fill="#54e360" id="svg_40" stroke="null"/>
      </g>
      <g id="svg_43" stroke="null">
       <path d="m44327.56503,11450.1451c-12.549,-12.549 -32.896,-12.553 -45.443,0l-113.608,113.609l-45.445,-45.445c-12.549,-12.549 -32.893,-12.549 -45.441,0s-12.549,32.896 0,45.445l68.164,68.164c12.549,12.549 32.896,12.549 45.441,-0.004l136.332,-136.328c12.549,-12.548 12.549,-32.892 0,-45.441z" fill="#e7f0ef" id="svg_42" stroke="null"/>
      </g>
     </g>
     <g id="svg_47" stroke="null">
      <path d="m44383.61803,11360.0051c-48.352,-48.351 -112.639,-74.98 -181.02,-74.98s-132.668,26.629 -181.02,74.98c-48.353,48.353 -74.98,112.64 -74.98,181.02c0,68.381 26.629,132.668 74.98,181.02s112.637,74.98 181.016,74.98c68.383,0 132.67,-26.629 181.023,-74.98c48.352,-48.352 74.981,-112.639 74.981,-181.02c0,-68.379 -26.629,-132.666 -74.98,-181.02zm-181.024,407.02c-124.615,0 -225.996,-101.383 -225.996,-226s101.383,-226 226,-226s226,101.383 226,226s-101.385,226 -226.004,226z" fill="#ffffff" id="svg_45" stroke="null"/>
      <path d="m44304.84403,11425.7251c-12.592,0 -24.428,4.904 -33.324,13.807l-103.004,103.003l-34.838,-34.839c-8.902,-8.902 -20.738,-13.806 -33.328,-13.806c-12.588,0 -24.424,4.903 -33.326,13.806c-18.379,18.378 -18.379,48.28 0,66.658l68.164,68.164c8.9,8.901 20.736,13.804 33.326,13.805c12.594,0 24.43,-4.905 33.328,-13.808l136.332,-136.329c18.377,-18.376 18.377,-48.278 0,-66.654c-8.904,-8.903 -20.74,-13.807 -33.33,-13.807zm12.117,59.247l-136.336,136.332c-3.234,3.236 -7.535,5.019 -12.111,5.019s-8.879,-1.782 -12.113,-5.018l-68.164,-68.164c-6.682,-6.681 -6.682,-17.552 0,-24.232c3.236,-3.235 7.537,-5.019 12.113,-5.019s8.879,1.783 12.115,5.019l45.445,45.445c2.813,2.813 6.627,4.394 10.605,4.394s7.795,-1.58 10.607,-4.394l113.613,-113.612c3.232,-3.234 7.531,-5.017 12.107,-5.017s8.879,1.782 12.117,5.02c6.682,6.679 6.682,17.549 0.002,24.227z" fill="#ffffff" id="svg_46" stroke="null"/>
     </g>
    </g>
   </g>
  </g>
  <line stroke="#ffffff" stroke-linecap="undefined" stroke-linejoin="undefined" id="svg_2" y2="48.45313" x2="101.47135" y1="48.45313" x1="147.5" stroke-width="3" fill="none"/>
  <g id="svg_21" stroke="null">
   <g id="svg_20" transform="matrix(0.1565825249280397,0,0,0.1565825249280397,-6610.35477835394,-1758.1229026391957) " stroke="null">
    <g id="svg_19" stroke="null">
     <g id="svg_12" stroke="null">
      <g id="svg_4" stroke="null">
       <path d="m42853.38025,11541.0321c0,133.102 -107.9,241 -241.004,241c-133.098,0 -240.998,-107.898 -240.998,-241c0,-133.1 107.898,-241 241.002,-241c133.1,0 241,107.9 241,241z" fill="#54e360" id="svg_3" stroke="null"/>
      </g>
      <g id="svg_11" stroke="null">
       <path d="m42737.34925,11450.1451c-12.549,-12.549 -32.896,-12.553 -45.443,0l-113.608,113.609l-45.445,-45.445c-12.549,-12.549 -32.893,-12.549 -45.441,0s-12.549,32.896 0,45.445l68.164,68.164c12.549,12.549 32.896,12.549 45.441,-0.004l136.332,-136.328c12.549,-12.548 12.549,-32.892 0,-45.441z" fill="#e7f0ef" id="svg_10" stroke="null"/>
      </g>
     </g>
     <g id="svg_15" stroke="null">
      <path d="m42793.40225,11360.0051c-48.352,-48.351 -112.639,-74.98 -181.02,-74.98s-132.668,26.629 -181.02,74.98c-48.353,48.353 -74.98,112.64 -74.98,181.02c0,68.381 26.629,132.668 74.98,181.02s112.637,74.98 181.016,74.98c68.383,0 132.67,-26.629 181.023,-74.98c48.352,-48.352 74.981,-112.639 74.981,-181.02c0,-68.379 -26.629,-132.666 -74.98,-181.02zm-181.024,407.02c-124.615,0 -225.996,-101.383 -225.996,-226s101.383,-226 226,-226s226,101.383 226,226s-101.385,226 -226.004,226z" fill="#ffffff" id="svg_13" stroke="null"/>
      <path d="m42714.62825,11425.7251c-12.592,0 -24.428,4.904 -33.324,13.807l-103.004,103.003l-34.838,-34.839c-8.902,-8.902 -20.738,-13.806 -33.328,-13.806c-12.588,0 -24.424,4.903 -33.326,13.806c-18.379,18.378 -18.379,48.28 0,66.658l68.164,68.164c8.9,8.901 20.736,13.804 33.326,13.805c12.594,0 24.43,-4.905 33.328,-13.808l136.332,-136.329c18.377,-18.376 18.377,-48.278 0,-66.654c-8.904,-8.903 -20.74,-13.807 -33.33,-13.807zm12.117,59.247l-136.336,136.332c-3.234,3.236 -7.535,5.019 -12.111,5.019s-8.879,-1.782 -12.113,-5.018l-68.164,-68.164c-6.682,-6.681 -6.682,-17.552 0,-24.232c3.236,-3.235 7.537,-5.019 12.113,-5.019s8.879,1.783 12.115,5.019l45.445,45.445c2.813,2.813 6.627,4.394 10.605,4.394s7.795,-1.58 10.607,-4.394l113.613,-113.612c3.232,-3.234 7.531,-5.017 12.107,-5.017s8.879,1.782 12.117,5.02c6.682,6.679 6.682,17.549 0.002,24.227z" fill="#ffffff" id="svg_14" stroke="null"/>
     </g>
    </g>
   </g>
  </g>
 </g>
</svg>