<?xml version="1.0"?>
<svg xmlns="http://www.w3.org/2000/svg" xmlns:xlink="http://www.w3.org/1999/xlink" xmlns:svgjs="http://svgjs.com/svgjs" version="1.1" width="512" height="512" x="0" y="0" viewBox="0 0 32 32" style="enable-background:new 0 0 512 512" xml:space="preserve"><g><path xmlns="http://www.w3.org/2000/svg" d="m29.7 10.5c-2-5.4-5.6-9.2-8.8-9.2-.5 0-.9.1-1.3.2-.9.3-1.7 1-2.2 1.9-6 6.8-14.3 9.9-14.4 9.9-2 .7-2.6 3.9-1.3 7.4 1.1 3 3.1 4.9 4.9 4.9.2 0 .5 0 .7-.1s1.3-.3 3.3-.6l2 4.2c.1.2.3.4.6.5l3.2 1.1c.1 0 .2.1.3.1.2 0 .4-.1.6-.2.3-.2.4-.6.4-.9l-.7-5.7c2.5-.2 5.3-.3 8.1-.1h.2c.4.1.8.2 1.2.2.5 0 .9-.1 1.3-.2 1.7-.6 2.9-2.5 3.2-5.2.2-2.4-.2-5.4-1.3-8.2zm-15.5 17.3-1.5-3.3 2.3-.3.5 4zm7.2-9.6c-.7-1.1-1.4-2.4-2-4-.5-1.5-.9-2.9-1-4.3.3 0 .7.3 1.1.6.7.7 1.4 1.8 1.8 3 .8 2.3.6 4.1.1 4.7zm-14.6 5.4c-.1 0-.1 0-.1 0-.7.2-2.2-1.1-3.2-3.6-.9-2.5-.5-4.6.1-4.8.3-.1 6.8-2.5 12.7-7.9-.1 2.3.3 5 1.2 7.6 1.1 2.9 2.6 5.3 4.3 7-7.8-.1-14.7 1.6-15 1.7zm22.1-5.1c-.2 1.9-.9 3.1-1.9 3.5-.2.1-.4.1-.6.1-1.1 0-2.4-.8-3.8-2.4 1.4-1.2 1.7-3.9.6-6.9-.6-1.5-1.4-2.8-2.3-3.7-.8-.8-1.7-1.2-2.6-1.2 0-.4 0-.7.1-1 .2-1.9.9-3.1 1.9-3.5.2-.1.4-.1.6-.1 2 0 5.1 3 6.9 7.9 1 2.5 1.4 5.2 1.1 7.3z" fill="#cb0000" data-original="#000000" style=""/></g></svg>
