<svg width="370" height="100" xmlns="http://www.w3.org/2000/svg">
 <!-- Created with Method Draw - http://github.com/duopixel/Method-Draw/ -->

 <g>
  <title>background</title>
  <rect fill="none" id="canvas_background" height="102" width="372" y="-1" x="-1"/>
 </g>
 <g stroke="null">
  <title>Layer 1</title>
  <ellipse ry="36" rx="36" id="svg_1" cy="51" cx="310.5" stroke-width="1.5" fill="#009bd3"/>
  <g id="svg_15" stroke="null">
   <g id="svg_10" transform="matrix(0.152587890625,0,0,0.152587890625,0,0) " stroke="null">
    <g id="svg_11" stroke="null">
     <path d="m419.4304,435.70164c-25.989,0 -47.133,21.145 -47.133,47.134s21.144,47.133 47.133,47.133c25.99,0 47.134,-21.144 47.134,-47.133s-21.144,-47.134 -47.134,-47.134zm0,64.266c-9.447,0 -17.133,-7.686 -17.133,-17.133s7.686,-17.134 17.133,-17.134c9.448,0 17.134,7.687 17.134,17.134s-7.686,17.133 -17.134,17.133z" fill="#ffffff" id="svg_12" stroke="null"/>
     <path d="m419.4304,138.49964c-29.753,0 -57.728,11.588 -78.773,32.63c-18.375,18.374 -18.375,48.276 0,66.659c8.902,8.9 20.738,13.803 33.328,13.803c12.54,0 24.331,-4.862 33.221,-13.696c0.039,-0.038 0.077,-0.075 0.115,-0.113c3.234,-3.233 7.535,-5.014 12.109,-5.014c9.448,0 17.134,7.687 17.134,17.134s-7.686,17.133 -17.134,17.133c-25.989,0 -47.133,21.145 -47.133,47.134l0,44.133c0,25.989 21.144,47.133 47.133,47.133c25.99,0 47.134,-21.144 47.134,-47.133l0,-7.457c38.843,-18.148 64.267,-57.455 64.267,-100.942c-0.001,-61.43 -49.975,-111.404 -111.401,-111.404zm27.133,188.153c-5.993,2.119 -9.999,7.785 -9.999,14.142l0,17.507c0,9.447 -7.686,17.133 -17.134,17.133c-9.447,0 -17.133,-7.686 -17.133,-17.133l0,-44.133c0,-9.447 7.686,-17.134 17.133,-17.134c25.99,0 47.134,-21.144 47.134,-47.133s-21.144,-47.134 -47.134,-47.134c-12.535,0 -24.325,4.861 -33.213,13.691c-0.039,0.038 -0.077,0.076 -0.116,0.114c-3.236,3.235 -7.539,5.018 -12.116,5.018s-8.88,-1.782 -12.113,-5.015c-6.681,-6.684 -6.682,-17.555 -0.003,-24.233c15.378,-15.376 35.821,-23.843 57.561,-23.843c44.884,0 81.4,36.517 81.4,81.402c0,34.429 -21.808,65.272 -54.267,76.751z" fill="#ffffff" id="svg_13" stroke="null"/>
     <path d="m600.4504,153.21364c-48.353,-48.351 -112.64,-74.98 -181.02,-74.98s-132.667,26.629 -181.02,74.98c-48.351,48.353 -74.98,112.64 -74.98,181.02s26.629,132.667 74.98,181.02c48.353,48.351 112.64,74.98 181.02,74.98s132.667,-26.629 181.02,-74.98c48.351,-48.353 74.98,-112.64 74.98,-181.02s-26.629,-132.667 -74.98,-181.02zm-181.02,407.02c-124.617,0 -226,-101.383 -226,-226s101.383,-226 226,-226s226,101.383 226,226s-101.383,226 -226,226z" fill="#ffffff" id="svg_14" stroke="null"/>
    </g>
   </g>
  </g>
  <g id="svg_23" stroke="null">
   <g id="svg_19" transform="matrix(0.152587890625,0,0,0.152587890625,0,0) " stroke="null">
    <g id="svg_20" stroke="null">
     <path d="m2212.63497,146.65998c-48.352,-48.351 -112.639,-74.98 -181.019,-74.98s-132.667,26.629 -181.02,74.98c-48.351,48.353 -74.98,112.64 -74.98,181.02s26.628,132.667 74.98,181.02c48.353,48.351 112.64,74.98 181.02,74.98s132.668,-26.629 181.02,-74.98c48.351,-48.353 74.98,-112.64 74.98,-181.02s-26.629,-132.667 -74.981,-181.02zm-319.202,359.724c19.683,-59.009 75.183,-99.437 138.183,-99.437s118.501,40.43 138.182,99.438c-38.232,29.63 -86.18,47.295 -138.182,47.295s-99.951,-17.665 -138.183,-47.296zm300.338,-21.455c-26.927,-64.621 -90.521,-107.982 -162.155,-107.982c-71.635,0 -135.228,43.36 -162.156,107.981c-39.49,-40.711 -63.844,-96.185 -63.844,-157.248c0,-124.617 101.383,-226 226,-226s226,101.383 226,226c0,61.063 -24.354,116.538 -63.845,157.249z" fill="#ffffff" id="svg_21" stroke="null"/>
     <path d="m2031.61597,152.01398c-52.567,0 -95.333,42.767 -95.333,95.333s42.766,95.333 95.333,95.333s95.334,-42.767 95.334,-95.333s-42.767,-95.333 -95.334,-95.333zm0,160.666c-36.025,0 -65.333,-29.309 -65.333,-65.333s29.308,-65.333 65.333,-65.333s65.334,29.309 65.334,65.333s-29.309,65.333 -65.334,65.333z" fill="#ffffff" id="svg_22" stroke="null"/>
    </g>
   </g>
  </g>
  <g id="svg_31" stroke="null">
   <g id="svg_28" transform="matrix(0.152587890625,0,0,0.152587890625,0,0) " stroke="null">
    <path d="m1413.09665,147.06959c-48.353,-48.351 -112.64,-74.98 -181.02,-74.98s-132.667,26.629 -181.02,74.98c-48.351,48.352 -74.98,112.639 -74.98,181.02s26.629,132.668 74.98,181.02c48.353,48.351 112.64,74.98 181.02,74.98s132.667,-26.628 181.02,-74.98c48.351,-48.353 74.98,-112.64 74.98,-181.02s-26.629,-132.668 -74.98,-181.02zm-181.02,407.02c-124.617,0 -226,-101.384 -226,-226c0,-124.617 101.383,-226 226,-226s226,101.383 226,226c0,124.616 -101.383,226 -226,226z" id="svg_29" fill="#ffffff"/>
    <path d="m1360.55565,335.50259l-113.606,113.605c-31.738,31.738 -83.379,31.738 -115.118,0c-15.375,-15.374 -23.842,-35.815 -23.842,-57.559s8.468,-42.185 23.842,-57.56l136.331,-136.329c19.208,-19.208 50.463,-19.21 69.673,0c9.306,9.306 14.431,21.678 14.431,34.837s-5.125,25.531 -14.431,34.836l-136.331,136.33c-3.236,3.236 -7.539,5.018 -12.114,5.018s-8.878,-1.782 -12.115,-5.019c-3.236,-3.235 -5.018,-7.537 -5.018,-12.112c0,-4.577 1.782,-8.879 5.019,-12.115l113.605,-113.607c5.858,-5.858 5.858,-15.355 0,-21.213c-5.857,-5.858 -15.355,-5.858 -21.213,0l-113.606,113.606c-8.902,8.902 -13.805,20.738 -13.805,33.328s4.903,24.426 13.805,33.326c8.902,8.902 20.738,13.805 33.327,13.805s24.425,-4.903 33.327,-13.805l136.331,-136.328c14.972,-14.972 23.218,-34.877 23.218,-56.05s-8.246,-41.079 -23.218,-56.05s-34.877,-23.217 -56.05,-23.217c-21.172,0 -41.077,8.245 -56.049,23.216l-136.33,136.33c-21.042,21.042 -32.629,49.017 -32.629,78.773s11.588,57.731 32.629,78.772c21.72,21.72 50.241,32.576 78.771,32.576c28.524,0 57.058,-10.861 78.772,-32.576l113.605,-113.605c5.858,-5.858 5.858,-15.355 0,-21.213c-5.856,-5.859 -15.354,-5.859 -21.211,0z" id="svg_30" fill="#ffffff"/>
   </g>
  </g>
  <line fill="none" stroke-width="3" x1="147.5" y1="49.45313" x2="101.47135" y2="49.45313" id="svg_33" stroke-linejoin="undefined" stroke-linecap="undefined" stroke="#ffffff"/>
  <line fill="none" stroke-width="3" x1="271.5" y1="48.45313" x2="225.47135" y2="48.45313" id="svg_34" stroke-linejoin="undefined" stroke-linecap="undefined" stroke="#ffffff"/>
 </g>
</svg>