<svg width="370" height="100" xmlns="http://www.w3.org/2000/svg">
 <!-- Created with Method Draw - http://github.com/duopixel/Method-Draw/ -->

 <g>
  <title>background</title>
  <rect fill="none" id="canvas_background" height="102" width="372" y="-1" x="-1"/>
 </g>
 <g stroke="null">
  <title>Layer 1</title>
  <ellipse ry="36" rx="36" id="svg_1" cy="51" cx="63.5" stroke-width="1.5" fill="#009bd3"/>
  <g id="svg_15" stroke="null">
   <g id="svg_10" transform="matrix(0.152587890625,0,0,0.152587890625,0,0) " stroke="null">
    <g id="svg_11" stroke="null">
     <path d="m419.4304,435.70164c-25.989,0 -47.133,21.145 -47.133,47.134s21.144,47.133 47.133,47.133c25.99,0 47.134,-21.144 47.134,-47.133s-21.144,-47.134 -47.134,-47.134zm0,64.266c-9.447,0 -17.133,-7.686 -17.133,-17.133s7.686,-17.134 17.133,-17.134c9.448,0 17.134,7.687 17.134,17.134s-7.686,17.133 -17.134,17.133z" fill="#ffffff" id="svg_12" stroke="null"/>
     <path d="m419.4304,138.49964c-29.753,0 -57.728,11.588 -78.773,32.63c-18.375,18.374 -18.375,48.276 0,66.659c8.902,8.9 20.738,13.803 33.328,13.803c12.54,0 24.331,-4.862 33.221,-13.696c0.039,-0.038 0.077,-0.075 0.115,-0.113c3.234,-3.233 7.535,-5.014 12.109,-5.014c9.448,0 17.134,7.687 17.134,17.134s-7.686,17.133 -17.134,17.133c-25.989,0 -47.133,21.145 -47.133,47.134l0,44.133c0,25.989 21.144,47.133 47.133,47.133c25.99,0 47.134,-21.144 47.134,-47.133l0,-7.457c38.843,-18.148 64.267,-57.455 64.267,-100.942c-0.001,-61.43 -49.975,-111.404 -111.401,-111.404zm27.133,188.153c-5.993,2.119 -9.999,7.785 -9.999,14.142l0,17.507c0,9.447 -7.686,17.133 -17.134,17.133c-9.447,0 -17.133,-7.686 -17.133,-17.133l0,-44.133c0,-9.447 7.686,-17.134 17.133,-17.134c25.99,0 47.134,-21.144 47.134,-47.133s-21.144,-47.134 -47.134,-47.134c-12.535,0 -24.325,4.861 -33.213,13.691c-0.039,0.038 -0.077,0.076 -0.116,0.114c-3.236,3.235 -7.539,5.018 -12.116,5.018s-8.88,-1.782 -12.113,-5.015c-6.681,-6.684 -6.682,-17.555 -0.003,-24.233c15.378,-15.376 35.821,-23.843 57.561,-23.843c44.884,0 81.4,36.517 81.4,81.402c0,34.429 -21.808,65.272 -54.267,76.751z" fill="#ffffff" id="svg_13" stroke="null"/>
     <path d="m600.4504,153.21364c-48.353,-48.351 -112.64,-74.98 -181.02,-74.98s-132.667,26.629 -181.02,74.98c-48.351,48.353 -74.98,112.64 -74.98,181.02s26.629,132.667 74.98,181.02c48.353,48.351 112.64,74.98 181.02,74.98s132.667,-26.629 181.02,-74.98c48.351,-48.353 74.98,-112.64 74.98,-181.02s-26.629,-132.667 -74.98,-181.02zm-181.02,407.02c-124.617,0 -226,-101.383 -226,-226s101.383,-226 226,-226s226,101.383 226,226s-101.383,226 -226,226z" fill="#ffffff" id="svg_14" stroke="null"/>
    </g>
   </g>
  </g>
  <line fill="none" stroke-width="3" x1="147.5" y1="49.45313" x2="101.47135" y2="49.45313" id="svg_33" stroke-linejoin="undefined" stroke-linecap="undefined" stroke="#ffffff"/>
  <line fill="none" stroke-width="3" x1="271.5" y1="48.45313" x2="225.47135" y2="48.45313" id="svg_34" stroke-linejoin="undefined" stroke-linecap="undefined" stroke="#ffffff"/>
  <g stroke="null" id="svg_26">
   <g stroke="null" transform="matrix(0.1565825249280397,0,0,0.1565825249280397,-6610.35477835394,-1758.1229026391957) " id="svg_5">
    <g stroke="null" id="svg_6">
     <g stroke="null" id="svg_7">
      <g stroke="null" id="svg_8">
       <path stroke="null" id="svg_9" fill="#54e360" d="m43651.68133,11541.0321c0,133.102 -107.9,241 -241.004,241c-133.098,0 -240.998,-107.898 -240.998,-241c0,-133.1 107.898,-241 241.002,-241c133.1,0 241,107.9 241,241z"/>
      </g>
      <g stroke="null" id="svg_16">
       <path stroke="null" id="svg_17" fill="#e7f0ef" d="m43535.65033,11450.1451c-12.549,-12.549 -32.896,-12.553 -45.443,0l-113.608,113.609l-45.445,-45.445c-12.549,-12.549 -32.893,-12.549 -45.441,0s-12.549,32.896 0,45.445l68.164,68.164c12.549,12.549 32.896,12.549 45.441,-0.004l136.332,-136.328c12.549,-12.548 12.549,-32.892 0,-45.441z"/>
      </g>
     </g>
     <g stroke="null" id="svg_18">
      <path stroke="null" id="svg_24" fill="#ffffff" d="m43591.70333,11360.0051c-48.352,-48.351 -112.639,-74.98 -181.02,-74.98s-132.668,26.629 -181.02,74.98c-48.353,48.353 -74.98,112.64 -74.98,181.02c0,68.381 26.629,132.668 74.98,181.02s112.637,74.98 181.016,74.98c68.383,0 132.67,-26.629 181.023,-74.98c48.352,-48.352 74.981,-112.639 74.981,-181.02c0,-68.379 -26.629,-132.666 -74.98,-181.02zm-181.024,407.02c-124.615,0 -225.996,-101.383 -225.996,-226s101.383,-226 226,-226s226,101.383 226,226s-101.385,226 -226.004,226z"/>
      <path stroke="null" id="svg_25" fill="#ffffff" d="m43512.92933,11425.7251c-12.592,0 -24.428,4.904 -33.324,13.807l-103.004,103.003l-34.838,-34.839c-8.902,-8.902 -20.738,-13.806 -33.328,-13.806c-12.588,0 -24.424,4.903 -33.326,13.806c-18.379,18.378 -18.379,48.28 0,66.658l68.164,68.164c8.9,8.901 20.736,13.804 33.326,13.805c12.594,0 24.43,-4.905 33.328,-13.808l136.332,-136.329c18.377,-18.376 18.377,-48.278 0,-66.654c-8.904,-8.903 -20.74,-13.807 -33.33,-13.807zm12.117,59.247l-136.336,136.332c-3.234,3.236 -7.535,5.019 -12.111,5.019s-8.879,-1.782 -12.113,-5.018l-68.164,-68.164c-6.682,-6.681 -6.682,-17.552 0,-24.232c3.236,-3.235 7.537,-5.019 12.113,-5.019s8.879,1.783 12.115,5.019l45.445,45.445c2.813,2.813 6.627,4.394 10.605,4.394s7.795,-1.58 10.607,-4.394l113.613,-113.612c3.232,-3.234 7.531,-5.017 12.107,-5.017s8.879,1.782 12.117,5.02c6.682,6.679 6.682,17.549 0.002,24.227z"/>
     </g>
    </g>
   </g>
  </g>
  <g stroke="null" id="svg_50">
   <g stroke="null" transform="matrix(0.1565825249280397,0,0,0.1565825249280397,-6610.35477835394,-1758.1229026391957) " id="svg_49">
    <g stroke="null" id="svg_48">
     <g stroke="null" id="svg_44">
      <g stroke="null" id="svg_41">
       <path stroke="null" id="svg_40" fill="#54e360" d="m44443.59603,11541.0321c0,133.102 -107.9,241 -241.004,241c-133.098,0 -240.998,-107.898 -240.998,-241c0,-133.1 107.898,-241 241.002,-241c133.1,0 241,107.9 241,241z"/>
      </g>
      <g stroke="null" id="svg_43">
       <path stroke="null" id="svg_42" fill="#e7f0ef" d="m44327.56503,11450.1451c-12.549,-12.549 -32.896,-12.553 -45.443,0l-113.608,113.609l-45.445,-45.445c-12.549,-12.549 -32.893,-12.549 -45.441,0s-12.549,32.896 0,45.445l68.164,68.164c12.549,12.549 32.896,12.549 45.441,-0.004l136.332,-136.328c12.549,-12.548 12.549,-32.892 0,-45.441z"/>
      </g>
     </g>
     <g stroke="null" id="svg_47">
      <path stroke="null" id="svg_45" fill="#ffffff" d="m44383.61803,11360.0051c-48.352,-48.351 -112.639,-74.98 -181.02,-74.98s-132.668,26.629 -181.02,74.98c-48.353,48.353 -74.98,112.64 -74.98,181.02c0,68.381 26.629,132.668 74.98,181.02s112.637,74.98 181.016,74.98c68.383,0 132.67,-26.629 181.023,-74.98c48.352,-48.352 74.981,-112.639 74.981,-181.02c0,-68.379 -26.629,-132.666 -74.98,-181.02zm-181.024,407.02c-124.615,0 -225.996,-101.383 -225.996,-226s101.383,-226 226,-226s226,101.383 226,226s-101.385,226 -226.004,226z"/>
      <path stroke="null" id="svg_46" fill="#ffffff" d="m44304.84403,11425.7251c-12.592,0 -24.428,4.904 -33.324,13.807l-103.004,103.003l-34.838,-34.839c-8.902,-8.902 -20.738,-13.806 -33.328,-13.806c-12.588,0 -24.424,4.903 -33.326,13.806c-18.379,18.378 -18.379,48.28 0,66.658l68.164,68.164c8.9,8.901 20.736,13.804 33.326,13.805c12.594,0 24.43,-4.905 33.328,-13.808l136.332,-136.329c18.377,-18.376 18.377,-48.278 0,-66.654c-8.904,-8.903 -20.74,-13.807 -33.33,-13.807zm12.117,59.247l-136.336,136.332c-3.234,3.236 -7.535,5.019 -12.111,5.019s-8.879,-1.782 -12.113,-5.018l-68.164,-68.164c-6.682,-6.681 -6.682,-17.552 0,-24.232c3.236,-3.235 7.537,-5.019 12.113,-5.019s8.879,1.783 12.115,5.019l45.445,45.445c2.813,2.813 6.627,4.394 10.605,4.394s7.795,-1.58 10.607,-4.394l113.613,-113.612c3.232,-3.234 7.531,-5.017 12.107,-5.017s8.879,1.782 12.117,5.02c6.682,6.679 6.682,17.549 0.002,24.227z"/>
     </g>
    </g>
   </g>
  </g>
 </g>
</svg>